<?xml version="1.0" encoding="UTF-8"?><svg id="Layer_1" xmlns="http://www.w3.org/2000/svg" width="4.52cm" height="4.52cm" xmlns:xlink="http://www.w3.org/1999/xlink" viewBox="0 0 128 128"><defs><style>.cls-1{fill:url(#linear-gradient-4);filter:url(#drop-shadow-4);}.cls-2{fill:url(#linear-gradient-3);filter:url(#drop-shadow-3);}.cls-3{fill:url(#linear-gradient);filter:url(#drop-shadow-1);}.cls-4{fill:url(#linear-gradient-2);filter:url(#drop-shadow-2);}</style><linearGradient id="linear-gradient" x1="78.55" y1="89.77" x2="117.07" y2="89.77" gradientUnits="userSpaceOnUse"><stop offset="0" stop-color="#8c52ff"/><stop offset=".24" stop-color="#a853d5"/><stop offset="1" stop-color="#ff5757"/></linearGradient><filter id="drop-shadow-1" x="66.35" y="56.44" width="68.64" height="72.24" filterUnits="userSpaceOnUse"><feOffset dx="2.83" dy="2.83"/><feGaussianBlur result="blur" stdDeviation="5"/><feFlood flood-color="#000" flood-opacity="1"/><feComposite in2="blur" operator="in"/><feComposite in="SourceGraphic"/></filter><linearGradient id="linear-gradient-2" x1="51.7" y1="62.53" x2="109.37" y2="62.53" xlink:href="#linear-gradient"/><filter id="drop-shadow-2" x="39.47" y="4.84" width="87.84" height="120.96" filterUnits="userSpaceOnUse"><feOffset dx="2.83" dy="2.83"/><feGaussianBlur result="blur-2" stdDeviation="5"/><feFlood flood-color="#000" flood-opacity="1"/><feComposite in2="blur-2" operator="in"/><feComposite in="SourceGraphic"/></filter><linearGradient id="linear-gradient-3" x1="10.93" y1="38.23" x2="49.45" y2="38.23" xlink:href="#linear-gradient"/><filter id="drop-shadow-3" x="-1.33" y="4.84" width="68.64" height="72.48" filterUnits="userSpaceOnUse"><feOffset dx="2.83" dy="2.83"/><feGaussianBlur result="blur-3" stdDeviation="5"/><feFlood flood-color="#000" flood-opacity="1"/><feComposite in2="blur-3" operator="in"/><feComposite in="SourceGraphic"/></filter><linearGradient id="linear-gradient-4" x1="18.63" y1="65.47" x2="76.3" y2="65.47" xlink:href="#linear-gradient"/><filter id="drop-shadow-4" x="6.35" y="7.72" width="87.84" height="120.96" filterUnits="userSpaceOnUse"><feOffset dx="2.83" dy="2.83"/><feGaussianBlur result="blur-4" stdDeviation="5"/><feFlood flood-color="#000" flood-opacity="1"/><feComposite in2="blur-4" operator="in"/><feComposite in="SourceGraphic"/></filter></defs><path class="cls-3" d="M81.77,68.71c9.8,7.33,28.78,21.52,29.36,21.95,14.97,11.19-2.07,18.67-10.37,20.01-3.8.62-8.35-.58-13.11-2.78-9.67-10.78-11.63-24.22-5.87-39.18Z"/><path class="cls-4" d="M77.27,26.82c13.14-10.42,27.32-14.14,31.76-2.3,3.59,9.56-23.17,33.52-27.26,44.18-5.75,14.95-3.8,28.39,5.87,39.18-10.39-4.82-21.74-14.47-28.36-20.51-17.87-16.37-1.01-45.48,17.99-60.55Z"/><path class="cls-2" d="M46.23,59.29c-9.8-7.33-28.78-21.52-29.36-21.95-14.97-11.19,2.07-18.67,10.37-20.01,3.8-.62,8.35.58,13.11,2.78,9.67,10.78,11.63,24.22,5.87,39.18Z"/><path class="cls-1" d="M50.73,101.18c-13.14,10.42-27.32,14.14-31.76,2.3-3.59-9.56,23.17-33.52,27.26-44.18,5.75-14.95,3.8-28.39-5.87-39.18,10.39,4.82,21.74,14.47,28.36,20.51,17.87,16.37,1.01,45.48-17.99,60.55Z"/></svg>